<svg width="140" height="110" viewBox="0 0 140 110" fill="none" xmlns="http://www.w3.org/2000/svg">
<path d="M47.1554 12.9679C91.2444 -2.69479 109.907 31.885 139.3 20.5955C102.076 21.1044 88.8543 -11.9499 45.5791 6.50979C30.1708 13.0696 20.4072 19.5788 2.2019 18.8671C16.3896 28.6303 33.2218 17.9514 47.1554 12.9679Z" fill="url(#paint0_linear_337_1721)"/>
<path d="M58.4446 34.2242C58.4446 41.8521 64.6483 48.0562 72.2762 48.0562C79.9042 48.0562 86.0574 41.8521 86.0574 34.2242C86.0574 31.6817 85.3964 29.3424 84.2266 27.3084C76.243 25.5796 68.7675 25.4268 60.5803 26.7999C59.2583 28.9863 58.4446 31.5289 58.4446 34.2242Z" fill="url(#paint1_linear_337_1721)"/>
<path d="M132.994 32.1395C122.315 32.1903 112.602 29.2917 103.347 24.8676C81.3792 12.9172 58.343 15.3073 34.6966 26.5967C24.8822 30.2579 15.2711 34.2243 3.4223 35.14C0.422072 35.3433 0.676171 34.6315 0.726991 37.4793C0.726991 41.1408 0.778119 44.7511 0.778119 48.4126C2.76133 42.5646 6.62612 40.4795 11.6096 40.5814C35.0527 54.6167 60.377 61.5325 89.5662 54.0065C67.7506 71.8049 54.173 106.384 26.8651 102.672C18.271 101.045 12.7282 96.6716 11.8128 87.9759C11.2027 82.3823 13.2367 78.4155 20.2545 77.3477C24.9327 77.1444 27.1195 79.0768 28.8483 81.3649C27.9329 81.06 27.0176 80.9073 26.0005 80.9073C21.2712 80.9073 17.4064 84.772 17.4064 89.5014C17.4064 94.2815 21.2712 98.1463 26.0005 98.1463C30.7807 98.1463 34.6455 94.2815 34.6455 89.5014C33.8826 67.6857 10.3886 68.4487 6.62581 84.5688C5.25274 89.7555 6.32058 95.8579 11.6092 101.757C15.8298 106.435 22.0849 108.774 29.0008 109.079C58.6987 110.147 76.3444 70.6348 100.499 51.9722C104.72 70.686 104.567 88.0775 102.431 106.791C102.94 107.706 103.499 107.757 104.211 106.791C109.144 91.281 115.246 76.6356 127.095 66.516C128.722 64.8888 127.502 62.6004 126.18 63.0072C106.093 67.3805 93.4815 45.4124 133.197 37.4284C140.877 35.8515 134.571 32.1395 132.994 32.1395ZM17.9664 38.4451C61.9029 19.1212 78.0738 17.799 116.111 36.3095C87.2781 56.2941 53.9697 54.1076 17.9664 38.4451Z" fill="url(#paint2_linear_337_1721)"/>
<defs>
<linearGradient id="paint0_linear_337_1721" x1="2.2019" y1="14.5439" x2="139.126" y2="9.29128" gradientUnits="userSpaceOnUse">
<stop stop-color="#2B3C8D"/>
<stop offset="1" stop-color="#1672BC"/>
</linearGradient>
<linearGradient id="paint1_linear_337_1721" x1="58.4446" y1="39.6283" x2="86.0614" y2="39.4166" gradientUnits="userSpaceOnUse">
<stop stop-color="#2B3C8D"/>
<stop offset="1" stop-color="#1672BC"/>
</linearGradient>
<linearGradient id="paint2_linear_337_1721" x1="0.699707" y1="74.0831" x2="136.943" y2="72.8429" gradientUnits="userSpaceOnUse">
<stop stop-color="#2B3C8D"/>
<stop offset="1" stop-color="#1672BC"/>
</linearGradient>
</defs>
</svg>
