<svg width="149" height="143" viewBox="0 0 149 143" fill="none" xmlns="http://www.w3.org/2000/svg">
<ellipse cx="74.5" cy="71.5" rx="74" ry="71.5" fill="url(#paint0_linear_344_1016)"/>
<path d="M62.3363 49.1192C85.8123 40.7793 95.7497 59.1919 111.4 53.1806C91.5796 53.4516 84.5396 35.8513 61.497 45.6804C53.2925 49.1733 48.0937 52.6393 38.4 52.2603C45.9545 57.4589 54.9171 51.7727 62.3363 49.1192Z" fill="white"/>
<path d="M68.3474 60.4375C68.3474 64.4992 71.6507 67.8026 75.7123 67.8026C79.7739 67.8026 83.0503 64.4992 83.0503 60.4375C83.0503 59.0837 82.6984 57.8381 82.0755 56.7551C77.8245 55.8345 73.844 55.7532 69.4846 56.4843C68.7807 57.6485 68.3474 59.0024 68.3474 60.4375Z" fill="white"/>
<path d="M108.043 59.3274C102.356 59.3545 97.1847 57.8111 92.2566 55.4554C80.5593 49.0922 68.2933 50.3648 55.7024 56.3761C50.4765 58.3256 45.3589 60.4376 39.0498 60.9251C37.4523 61.0334 37.5876 60.6544 37.6146 62.1707C37.6146 64.1203 37.6418 66.0428 37.6418 67.9924C38.6978 64.8785 40.7557 63.7682 43.4092 63.8225C55.8919 71.2958 69.3763 74.9783 84.9186 70.971C73.3025 80.448 66.0729 98.8605 51.5323 96.8839C46.9562 96.0174 44.0049 93.6887 43.5175 89.0585C43.1926 86.0801 44.2756 83.968 48.0124 83.3994C50.5034 83.2911 51.6678 84.3201 52.5883 85.5384C52.1009 85.3761 51.6135 85.2947 51.072 85.2947C48.5538 85.2947 46.4959 87.3526 46.4959 89.8708C46.4959 92.4161 48.5538 94.474 51.072 94.474C53.6173 94.474 55.6751 92.4161 55.6751 89.8708C55.2689 78.2547 42.7591 78.6609 40.7556 87.2443C40.0244 90.0061 40.593 93.2554 43.4091 96.3964C45.6564 98.8875 48.987 100.133 52.6695 100.295C68.4827 100.864 77.8784 79.825 90.74 69.8877C92.9874 79.8522 92.9062 89.1126 91.7689 99.0769C92.0397 99.5644 92.3375 99.5914 92.7167 99.0769C95.3431 90.8184 98.5924 83.0202 104.901 77.6318C105.768 76.7654 105.118 75.5469 104.414 75.7635C93.7185 78.0922 87.0034 66.3949 108.151 62.1437C112.24 61.304 108.882 59.3274 108.043 59.3274ZM46.794 62.685C70.1888 52.3957 78.7993 51.6916 99.0531 61.5478C83.7003 72.189 65.9646 71.0247 46.794 62.685Z" fill="white"/>
<defs>
<linearGradient id="paint0_linear_344_1016" x1="0.5" y1="88.66" x2="148.524" y2="87.7167" gradientUnits="userSpaceOnUse">
<stop stop-color="#2B3C8D"/>
<stop offset="1" stop-color="#1672BC"/>
</linearGradient>
</defs>
</svg>
